<svg width="49" height="49" fill="none" xmlns="http://www.w3.org/2000/svg"><path fill-rule="evenodd" clip-rule="evenodd" d="M48.972 8.83A8.802 8.802 0 0040.17.028H9.024A8.802 8.802 0 00.222 8.83v31.145a8.802 8.802 0 008.802 8.803H40.17a8.802 8.802 0 008.802-8.803V8.83zM4.285 14.924H44.91v25.051a4.74 4.74 0 01-4.74 4.74H9.024a4.74 4.74 0 01-4.74-4.74V14.923zM9.025 4.09H40.17a4.74 4.74 0 014.74 4.74v2.031H4.285V8.83a4.74 4.74 0 014.74-4.74z" fill="#fff"/><path d="M21.84 28.78c1.293.16 2.28.6 2.96 1.32.68.72 1.02 1.62 1.02 2.7a4.13 4.13 0 01-.62 2.22c-.413.667-1.04 1.2-1.88 1.6-.827.387-1.84.58-3.04.58-1 0-1.967-.14-2.9-.42-.92-.293-1.707-.693-2.36-1.2l1.12-2.02c.507.427 1.12.767 1.84 1.02a7.22 7.22 0 002.26.36c.92 0 1.64-.187 2.16-.56.533-.387.8-.907.8-1.56s-.253-1.16-.76-1.52c-.493-.373-1.253-.56-2.28-.56h-1.28v-1.78l3.18-3.78H15.7V23h9.54v1.74l-3.4 4.04zM32.36 23v14h-2.6V25.18H26.8V23h5.56z" fill="#fff"/></svg>