<svg width="52" height="55" fill="none" xmlns="http://www.w3.org/2000/svg"><path d="M34.377 34.238a5.622 5.622 0 015.622 5.623v1.438a9.375 9.375 0 01-2.253 6.096c-3.923 4.584-9.891 6.846-17.755 6.846-7.864 0-13.83-2.263-17.745-6.848A9.375 9.375 0 010 41.305V39.86a5.622 5.622 0 015.622-5.623h28.755zm0 3.75H5.622a1.872 1.872 0 00-1.872 1.873v1.444c0 1.339.478 2.634 1.347 3.652 3.134 3.67 8.048 5.534 14.894 5.534s11.765-1.864 14.906-5.534a5.625 5.625 0 001.352-3.658v-1.438a1.872 1.872 0 00-1.872-1.873zM45.127.248a1.875 1.875 0 012.557.697 31.735 31.735 0 014.182 15.793 31.734 31.734 0 01-4.209 15.842 1.875 1.875 0 01-3.253-1.867c2.42-4.218 3.712-9 3.712-13.975 0-4.957-1.283-9.724-3.688-13.932a1.875 1.875 0 01.698-2.559zM19.99 4.25c6.904 0 12.5 5.596 12.5 12.5s-5.596 12.5-12.5 12.5c-6.903 0-12.5-5.596-12.5-12.5s5.597-12.5 12.5-12.5zm16.471.987a1.875 1.875 0 012.557.703 21.781 21.781 0 012.847 10.798c0 3.846-.995 7.55-2.86 10.82a1.875 1.875 0 11-3.257-1.857 18.031 18.031 0 002.367-8.963c0-3.182-.82-6.24-2.357-8.944a1.875 1.875 0 01.703-2.557zM19.992 8a8.75 8.75 0 100 17.5 8.75 8.75 0 000-17.5z" fill="#fff"/></svg>