<svg width="51" height="53" fill="none" xmlns="http://www.w3.org/2000/svg"><path d="M25.532.094a28.66 28.66 0 015.908.685 2.03 2.03 0 011.576 1.758l.462 4.135A3.748 3.748 0 0037.2 10.01a3.68 3.68 0 001.497-.317l3.793-1.666a2.031 2.031 0 012.3.471 26.522 26.522 0 015.971 10.27 2.031 2.031 0 01-.735 2.237l-3.362 2.479a3.74 3.74 0 00.002 6.03l3.365 2.478c.697.513.992 1.411.736 2.237a26.536 26.536 0 01-5.968 10.27 2.031 2.031 0 01-2.299.473l-3.809-1.67a3.74 3.74 0 00-5.216 3.016l-.458 4.135a2.031 2.031 0 01-1.55 1.752c-3.922.933-8.01.933-11.932 0a2.031 2.031 0 01-1.549-1.752l-.457-4.129a3.743 3.743 0 00-5.214-3.008l-3.81 1.67a2.032 2.032 0 01-2.298-.474 26.536 26.536 0 01-5.968-10.28 2.031 2.031 0 01.735-2.236l3.368-2.48a3.74 3.74 0 00-.002-6.03L.975 21.01a2.031 2.031 0 01-.736-2.238A26.523 26.523 0 016.21 8.502a2.031 2.031 0 012.3-.471l3.793 1.666a3.727 3.727 0 003.38-.198 3.756 3.756 0 001.848-2.83l.46-4.132A2.033 2.033 0 0119.57.779a28.884 28.884 0 015.962-.685zm0 4.062c-1.23.014-2.456.12-3.668.317l-.295 2.647a7.816 7.816 0 01-3.842 5.89 7.787 7.787 0 01-7.058.406l-2.432-1.068a22.46 22.46 0 00-3.65 6.275l2.16 1.59a7.802 7.802 0 01.002 12.575l-2.164 1.594c.868 2.28 2.1 4.403 3.65 6.287l2.452-1.074a7.806 7.806 0 0110.88 6.277l.294 2.664c2.41.41 4.871.41 7.28 0l.296-2.664a7.802 7.802 0 0110.884-6.29l2.45 1.074a22.517 22.517 0 003.649-6.277l-2.161-1.593a7.803 7.803 0 01-.003-12.574l2.158-1.59a22.46 22.46 0 00-3.65-6.277l-2.428 1.067c-.99.437-2.06.663-3.141.661a7.81 7.81 0 01-7.755-6.954l-.295-2.647a24.346 24.346 0 00-3.613-.316zm4.234 11.51c.189 0 .369.066.512.182l.13.133 7.523 9.688c.326.42.372.981.14 1.441l-.14.22-7.523 9.69a.813.813 0 01-.457.292l-.185.021h-7.325a.813.813 0 01-.736-1.156l.098-.16 7.51-9.517-8.41-10.833h8.863zm-10.56 2.178l4.577 5.961-2.117 2.695 1.73 2.203a.813.813 0 01-.003 1.008l-3.619 4.55a.813.813 0 01-1.141.13l-.134-.135-5.421-6.92a1.354 1.354 0 010-1.671l6.128-7.82z" fill="#fff"/></svg>