<svg width="27" height="27" fill="none" xmlns="http://www.w3.org/2000/svg"><path d="M12.524.032C10.49.227 8.954.67 7.288 1.529a13.438 13.438 0 00-5.864 5.986C.934 8.5.707 9.107.448 10.078.132 11.3.037 12.045.032 13.395c0 .675.026 1.402.063 1.687.29 2.162.965 4.024 2.099 5.764l.38.585-.84 2.474c-.463 1.365-.832 2.483-.822 2.494.01.01 1.16-.348 2.563-.796 1.403-.449 2.568-.818 2.595-.818.02 0 .237.122.48.274.242.148.748.422 1.123.602a13.47 13.47 0 0010.8.385c3.955-1.567 6.992-5 8.079-9.123.332-1.266.411-1.957.411-3.423s-.079-2.157-.411-3.422C25.276 5.242 21.4 1.482 16.506.338c-.823-.19-1.677-.29-2.716-.306a23.4 23.4 0 00-1.266 0zM9.308 6.286c.09.048.21.174.274.29.153.28 1.44 3.365 1.476 3.554.048.238-.19.644-.711 1.234-.549.617-.665.813-.618 1.034.09.4 1.308 2.02 2.062 2.732 1.166 1.102 2.927 2.151 3.713 2.21.406.026.548-.085 1.17-.908.28-.374.575-.749.665-.833.2-.206.501-.248.844-.121.432.163 3.085 1.455 3.275 1.598l.179.131-.032.56c-.074 1.434-.58 2.177-1.909 2.826-1.265.617-2.257.601-4.192-.069-2.605-.901-3.982-1.761-5.854-3.644a19.242 19.242 0 01-2.362-2.826c-1.255-1.793-1.735-3.18-1.593-4.588.116-1.129.512-1.962 1.308-2.758.385-.385.886-.543 1.645-.517.322.01.56.042.66.095z" fill="#17191D"/></svg>